# xmcd CD database file
#
# Track frame offsets:
#	150
#	16227
#	35457
#	54552
#	65115
#	89485
#	107382
#	132037
#	144385
#	164130
#	186417
#	217622
#	238487
#	257687
#	269927
#
# Disc length: 3822 seconds
#
# Revision: 0
# Processed by: cddbd v1.5.1PL0 Copyright (c) Steve Scherf et al.
# Submitted via: CDex 1.51
#
DISCID=e30eec0f
DTITLE=Nina Simone - The Lady Was the Blues
DYEAR=2003
DGENRE=Blues
TTITLE0=Please Don't Let Me Be Misunderstood
TTITLE1=When I Was in My Prime
TTITLE2=Gin House Blues
TTITLE3=I Want A Little Sugar in My Bowl
TTITLE4=But Beautiful
TTITLE5=See Line Woman
TTITLE6=The Thrill is Gone
TTITLE7=I'll Look Around
TTITLE8=Blues
TTITLE9=Ain't Got No
TTITLE10=House Of The Rising Sun
TTITLE11=Blue Prelude
TTITLE12=Spring is Here
TTITLE13=Ain't No Use
TTITLE14=Cotton Eyed Joe
EXTD=YEAR: 2003
EXTT0=
EXTT1=
EXTT2=
EXTT3=
EXTT4=
EXTT5=
EXTT6=
EXTT7=
EXTT8=
EXTT9=
EXTT10=
EXTT11=
EXTT12=
EXTT13=
EXTT14=
PLAYORDER=
